<svg t="1690885688978" class="icon" viewBox="0 0 1024 1024" version="1.1" xmlns="http://www.w3.org/2000/svg" p-id="3020" width="16" height="16"><path d="M385.728 733.568C369.152 759.872 333.728 771.296 307.424 759.296 281.728 747.296 273.728 716.992 290.272 691.296 306.272 666.144 340.576 654.72 366.272 665.568 393.152 676.992 401.728 707.296 385.728 733.568ZM439.424 664.416C433.728 674.72 420.576 679.296 410.272 675.296 400 670.72 397.152 659.872 402.848 649.568 408.576 639.872 421.152 635.296 431.424 638.72 441.728 642.72 445.152 654.144 439.424 664.416ZM538.848 725.568C573.152 648.992 530.848 570.144 446.848 548.416 366.272 527.872 275.424 567.872 240 638.72 204.576 711.296 238.848 791.872 320.576 818.144 405.152 845.568 504.576 803.296 538.848 725.568ZM717.152 634.144C728 745.568 600 848.992 430.272 866.144 260.576 882.72 114.272 806.144 103.424 694.72 92.576 583.296 220.576 479.872 390.272 462.72 560 446.144 706.272 522.72 717.152 634.144ZM893.152 636.416C893.152 558.72 828 514.72 769.152 496.416 754.848 491.872 745.152 488.992 752.576 470.144 768.576 428.992 770.272 393.568 752.576 368.416 719.424 320.992 628.576 323.296 524.576 367.296 524.576 366.72 492 381.568 500 355.296 516 303.872 513.728 260.416 488.576 235.872 432 179.296 281.728 237.568 152.576 366.72 56 463.296 0 565.568 0 654.144 0 823.872 217.152 926.72 429.728 926.72 708 926.72 893.152 764.992 893.152 636.416ZM850.848 279.872C818.272 243.296 769.728 229.568 725.152 239.296 706.848 243.296 695.424 260.992 699.424 279.296 702.848 297.568 721.152 308.992 739.424 304.992 761.152 300.416 784.576 307.296 800.576 324.992 816.576 342.72 821.152 366.72 814.272 388.416 808.576 406.144 818.272 424.992 836 430.72 853.728 436.416 872.576 426.72 878.272 408.992 892.576 365.568 883.424 315.872 850.848 279.872ZM954.272 186.72C886.848 111.872 788 83.872 696 103.296 674.848 107.872 661.152 128.416 665.728 149.568 670.272 170.72 691.424 184.416 712.576 179.872 777.728 166.144 848 186.144 896 239.296 944 291.872 956.576 364.416 936 427.872 929.728 448.416 941.152 470.144 961.728 476.992 982.272 483.872 1004 472.416 1010.848 451.872 1039.424 362.72 1021.728 260.992 954.272 186.72Z" p-id="3021" fill="#8a8a8a"></path></svg>